<svg width="106" height="24" viewBox="0 0 106 24" fill="none" xmlns="http://www.w3.org/2000/svg">
<path d="M5.376 12.372C5.16133 12.5867 4.89533 12.694 4.578 12.694C4.26067 12.694 3.99467 12.5867 3.78 12.372C3.56533 12.1573 3.458 11.8913 3.458 11.574C3.458 11.266 3.56533 11.0047 3.78 10.79C3.99467 10.5753 4.26067 10.468 4.578 10.468C4.89533 10.468 5.16133 10.5753 5.376 10.79C5.59067 11.0047 5.698 11.266 5.698 11.574C5.698 11.8913 5.59067 12.1573 5.376 12.372ZM9.632 16.222V18C9.11867 18 8.71267 17.8833 8.414 17.65C8.08733 19.6753 6.76667 20.688 4.452 20.688C3.23867 20.688 2.28667 20.3893 1.596 19.792C0.905333 19.1947 0.56 18.2613 0.56 16.992V14.612H2.87L2.856 17.006C2.856 18.2567 3.42067 18.882 4.55 18.882C5.65133 18.882 6.202 18.2473 6.202 16.978V12.96H8.498V14.976C8.498 15.452 8.59133 15.7787 8.778 15.956C8.974 16.1333 9.25867 16.222 9.632 16.222ZM13.9647 16.6C13.9647 17.5333 13.484 18 12.5227 18H9.59667C9.39134 18 9.28867 17.7153 9.28867 17.146C9.28867 16.53 9.40534 16.222 9.63867 16.222H11.6687V11.77H13.9647V16.6ZM11.0247 18.84C11.3327 18.84 11.594 18.9473 11.8087 19.162C12.0233 19.3767 12.1307 19.6427 12.1307 19.96C12.1307 20.268 12.0233 20.5293 11.8087 20.744C11.594 20.9587 11.3327 21.066 11.0247 21.066C10.7073 21.066 10.4413 20.9587 10.2267 20.744C10.012 20.5293 9.90467 20.268 9.90467 19.96C9.90467 19.6427 10.012 19.3767 10.2267 19.162C10.4413 18.9473 10.7073 18.84 11.0247 18.84ZM13.6427 18.84C13.9507 18.84 14.212 18.9473 14.4267 19.162C14.6507 19.3767 14.7627 19.6427 14.7627 19.96C14.7627 20.268 14.6507 20.5293 14.4267 20.744C14.212 20.9587 13.9507 21.066 13.6427 21.066C13.3253 21.066 13.0593 20.9587 12.8447 20.744C12.63 20.5293 12.5227 20.268 12.5227 19.96C12.5227 19.6427 12.63 19.3767 12.8447 19.162C13.0593 18.9473 13.3253 18.84 13.6427 18.84ZM23.6539 16.222H24.7179V18H15.8419V16.222H21.3579V7.99H23.6539V16.222ZM19.9999 11V15.298H17.7039V11H19.9999ZM27.9808 10.496C27.7661 10.7107 27.5001 10.818 27.1828 10.818C26.8654 10.818 26.5994 10.7107 26.3848 10.496C26.1701 10.2813 26.0628 10.0153 26.0628 9.698C26.0628 9.39 26.1701 9.12867 26.3848 8.914C26.5994 8.69933 26.8654 8.592 27.1828 8.592C27.5001 8.592 27.7661 8.69933 27.9808 8.914C28.1954 9.12867 28.3028 9.39 28.3028 9.698C28.3028 10.0153 28.1954 10.2813 27.9808 10.496ZM26.0208 11.77H28.3167V16.6C28.3167 17.5333 27.8361 18 26.8748 18H24.6767C24.4714 18 24.3687 17.7153 24.3687 17.146C24.3687 16.53 24.4854 16.222 24.7188 16.222H26.0208V11.77ZM33.1954 11.63C33.6341 11.63 34.0401 11.6907 34.4134 11.812C34.7868 11.9333 35.1228 12.1247 35.4214 12.386C35.7294 12.6473 35.9674 13.0067 36.1354 13.464C36.3128 13.912 36.4014 14.444 36.4014 15.06V17.258C36.4014 18.5087 36.0328 19.4373 35.2954 20.044C34.5674 20.6507 33.3028 20.9773 31.5014 21.024L31.3334 19.372C32.3228 19.3067 33.0274 19.1573 33.4474 18.924C33.8674 18.7 34.0868 18.3593 34.1054 17.902H33.3074C31.9914 17.902 31.0628 17.636 30.5214 17.104C29.9801 16.5627 29.7094 15.83 29.7094 14.906C29.7094 13.9167 30.0268 13.1233 30.6614 12.526C31.2961 11.9287 32.1408 11.63 33.1954 11.63ZM32.0054 14.808C32.0054 15.7507 32.4814 16.222 33.4334 16.222H34.1054V15.102C34.1054 13.9727 33.7741 13.408 33.1114 13.408C32.7474 13.408 32.4721 13.5433 32.2854 13.814C32.0988 14.0847 32.0054 14.416 32.0054 14.808ZM37.8071 18V7.99H40.1031V18H37.8071ZM50.3291 12.372C50.1145 12.5867 49.8485 12.694 49.5311 12.694C49.2138 12.694 48.9478 12.5867 48.7331 12.372C48.5185 12.1573 48.4111 11.8913 48.4111 11.574C48.4111 11.266 48.5185 11.0047 48.7331 10.79C48.9478 10.5753 49.2138 10.468 49.5311 10.468C49.8485 10.468 50.1145 10.5753 50.3291 10.79C50.5438 11.0047 50.6511 11.266 50.6511 11.574C50.6511 11.8913 50.5438 12.1573 50.3291 12.372ZM54.5851 16.222V18C54.0718 18 53.6658 17.8833 53.3671 17.65C53.0405 19.6753 51.7198 20.688 49.4051 20.688C48.1918 20.688 47.2398 20.3893 46.5491 19.792C45.8585 19.1947 45.5131 18.2613 45.5131 16.992V14.612H47.8231L47.8091 17.006C47.8091 18.2567 48.3738 18.882 49.5031 18.882C50.6045 18.882 51.1551 18.2473 51.1551 16.978V12.96H53.4511V14.976C53.4511 15.452 53.5445 15.7787 53.7311 15.956C53.9271 16.1333 54.2118 16.222 54.5851 16.222ZM61.5358 16.222H62.3898V18H54.5498C54.3445 18 54.2418 17.7153 54.2418 17.146C54.2418 16.53 54.3585 16.222 54.5918 16.222H59.2398V15.032C59.2398 14.0427 58.6098 13.548 57.3498 13.548H55.3338V11.77H58.2458C59.3751 11.77 60.2058 12.064 60.7378 12.652C61.2698 13.2307 61.5358 13.982 61.5358 14.906V16.222ZM68.7828 9.782C68.4654 9.782 68.1994 9.67467 67.9848 9.46C67.7701 9.24533 67.6628 8.984 67.6628 8.676C67.6628 8.35867 67.7701 8.09267 67.9848 7.878C68.1994 7.66333 68.4654 7.556 68.7828 7.556C69.0908 7.556 69.3521 7.66333 69.5668 7.878C69.7814 8.09267 69.8888 8.35867 69.8888 8.676C69.8888 8.984 69.7814 9.24533 69.5668 9.46C69.3521 9.67467 69.0908 9.782 68.7828 9.782ZM67.4248 12.008C67.1074 12.008 66.8414 11.9007 66.6268 11.686C66.4121 11.4713 66.3048 11.2053 66.3048 10.888C66.3048 10.58 66.4121 10.3187 66.6268 10.104C66.8414 9.88933 67.1074 9.782 67.4248 9.782C67.7328 9.782 67.9941 9.88933 68.2088 10.104C68.4234 10.3187 68.5308 10.58 68.5308 10.888C68.5308 11.2053 68.4234 11.4713 68.2088 11.686C67.9941 11.9007 67.7328 12.008 67.4248 12.008ZM68.9228 10.888C68.9228 10.58 69.0301 10.3187 69.2448 10.104C69.4594 9.88933 69.7254 9.782 70.0428 9.782C70.3508 9.782 70.6121 9.88933 70.8268 10.104C71.0508 10.3187 71.1628 10.58 71.1628 10.888C71.1628 11.2053 71.0508 11.4713 70.8268 11.686C70.6121 11.9007 70.3508 12.008 70.0428 12.008C69.7254 12.008 69.4594 11.9007 69.2448 11.686C69.0301 11.4713 68.9228 11.2053 68.9228 10.888ZM71.5548 11.77H73.8508V14.99C73.8508 16.9967 73.0994 18 71.5968 18C70.6821 18 69.9634 17.6873 69.4408 17.062C69.0674 17.6873 68.4608 18 67.6208 18C66.7154 18 66.0014 17.6873 65.4788 17.062C65.1054 17.6873 64.4988 18 63.6588 18H62.3428C62.1374 18 62.0348 17.7153 62.0348 17.146C62.0348 16.53 62.1514 16.222 62.3848 16.222H62.7208C63.0474 16.222 63.2761 16.124 63.4068 15.928C63.5468 15.732 63.6168 15.424 63.6168 15.004V12.96H65.9128V14.99C65.9128 15.438 65.9874 15.7553 66.1368 15.942C66.2861 16.1287 66.5054 16.222 66.7948 16.222C67.3268 16.222 67.5928 15.816 67.5928 15.004V12.96H69.8748V14.99C69.8748 15.438 69.9494 15.7553 70.0988 15.942C70.2481 16.1287 70.4674 16.222 70.7568 16.222C71.2888 16.222 71.5548 15.816 71.5548 15.004V11.77Z" fill="#888888"/>
<path d="M84 10H104" stroke="#888888" stroke-width="1.5" stroke-miterlimit="10" stroke-linecap="round" stroke-linejoin="round"/>
<path d="M93.5483 20.4998H88.4383C84.8883 20.4998 83.9883 19.6198 83.9883 16.1098V7.88977C83.9883 4.70977 84.7283 3.68977 87.5183 3.52977C87.7983 3.51977 88.1083 3.50977 88.4383 3.50977H99.5483C103.098 3.50977 103.998 4.38977 103.998 7.89977V12.3098" stroke="#888888" stroke-width="1.5" stroke-linecap="round" stroke-linejoin="round"/>
<path d="M88 16H92" stroke="#888888" stroke-width="1.5" stroke-miterlimit="10" stroke-linecap="round" stroke-linejoin="round"/>
<path d="M104 18C104 18.75 103.79 19.46 103.42 20.06C102.73 21.22 101.46 22 100 22C98.54 22 97.27 21.22 96.58 20.06C96.21 19.46 96 18.75 96 18C96 15.79 97.79 14 100 14C102.21 14 104 15.79 104 18Z" stroke="#888888" stroke-width="1.5" stroke-miterlimit="10" stroke-linecap="round" stroke-linejoin="round"/>
<path d="M98.4414 17.9995L99.4314 18.9895L101.561 17.0195" stroke="#888888" stroke-width="1.5" stroke-linecap="round" stroke-linejoin="round"/>
</svg>
