<svg width="22" height="22" viewBox="0 0 22 22" fill="none" xmlns="http://www.w3.org/2000/svg">
<g clip-path="url(#clip0_115_5941)">
<path d="M20.4287 10.9058C20.4139 12.5418 19.9466 14.1418 19.0785 15.5286C18.2104 16.9154 16.9753 18.0348 15.5101 18.7629L11.0001 21.2143L6.49012 18.8572C5.01065 18.122 3.76613 16.9878 2.89703 15.5828C2.02792 14.1778 1.56882 12.5579 1.57155 10.9058V2.3572C1.57155 1.94043 1.73711 1.54073 2.03181 1.24603C2.32651 0.951327 2.7262 0.785767 3.14297 0.785767H18.8573C19.274 0.785767 19.6737 0.951327 19.9684 1.24603C20.2631 1.54073 20.4287 1.94043 20.4287 2.3572V10.9058Z" stroke="white" stroke-width="2" stroke-linecap="round" stroke-linejoin="round"/>
<path d="M8.64303 12.5715C8.64303 13.1967 8.89137 13.7962 9.33342 14.2383C9.77547 14.6803 10.375 14.9287 11.0002 14.9287C11.3157 14.9521 11.6326 14.9073 11.9293 14.7971C12.2259 14.6869 12.4953 14.5141 12.719 14.2903C12.9428 14.0666 13.1156 13.7972 13.2258 13.5006C13.3359 13.204 13.3808 12.8871 13.3573 12.5715C13.3573 10.2144 8.64303 10.2144 8.64303 7.85722C8.61955 7.54167 8.66442 7.22477 8.77458 6.92814C8.88474 6.63151 9.05758 6.36213 9.28133 6.13838C9.50507 5.91464 9.77445 5.74179 10.0711 5.63164C10.3677 5.52148 10.6846 5.47661 11.0002 5.50008C11.6253 5.50008 12.2249 5.74842 12.6669 6.19047C13.109 6.63252 13.3573 7.23207 13.3573 7.85722" stroke="white" stroke-width="2" stroke-linecap="round" stroke-linejoin="round"/>
<path d="M11 5.50002V3.92859" stroke="white" stroke-width="2" stroke-linecap="round" stroke-linejoin="round"/>
<path d="M11 16.5001V14.9286" stroke="white" stroke-width="2" stroke-linecap="round" stroke-linejoin="round"/>
</g>
<defs>
<clipPath id="clip0_115_5941">
<rect width="22" height="22" fill="white"/>
</clipPath>
</defs>
</svg>
