<svg width="102" height="24" viewBox="0 0 102 24" fill="none" xmlns="http://www.w3.org/2000/svg">
<path d="M96.04 13.55C95.62 13.96 95.38 14.55 95.44 15.18C95.53 16.26 96.52 17.05 97.6 17.05H99.5V18.24C99.5 20.31 97.81 22 95.74 22H85.63C85.94 21.74 86.21 21.42 86.42 21.06C86.79 20.46 87 19.75 87 19C87 16.79 85.21 15 83 15C82.06 15 81.19 15.33 80.5 15.88V11.51C80.5 9.44001 82.19 7.75 84.26 7.75H95.74C97.81 7.75 99.5 9.44001 99.5 11.51V12.95H97.48C96.92 12.95 96.41 13.17 96.04 13.55Z" stroke="white" stroke-width="1.5" stroke-linecap="round" stroke-linejoin="round"/>
<path d="M80.5 12.41V7.84004C80.5 6.65004 81.23 5.59 82.34 5.17L90.28 2.17C91.52 1.7 92.85 2.62003 92.85 3.95003V7.75002" stroke="white" stroke-width="1.5" stroke-linecap="round" stroke-linejoin="round"/>
<path d="M100.559 13.9702V16.0302C100.559 16.5802 100.119 17.0302 99.5588 17.0502H97.5988C96.5188 17.0502 95.5288 16.2602 95.4388 15.1802C95.3788 14.5502 95.6188 13.9602 96.0388 13.5502C96.4088 13.1702 96.9188 12.9502 97.4788 12.9502H99.5588C100.119 12.9702 100.559 13.4202 100.559 13.9702Z" stroke="white" stroke-width="1.5" stroke-linecap="round" stroke-linejoin="round"/>
<path d="M85 12H92" stroke="white" stroke-width="1.5" stroke-linecap="round" stroke-linejoin="round"/>
<path d="M87 19C87 19.75 86.79 20.46 86.42 21.06C86.21 21.42 85.94 21.74 85.63 22C84.93 22.63 84.01 23 83 23C81.54 23 80.27 22.22 79.58 21.06C79.21 20.46 79 19.75 79 19C79 17.74 79.58 16.61 80.5 15.88C81.19 15.33 82.06 15 83 15C85.21 15 87 16.79 87 19Z" stroke="white" stroke-width="1.5" stroke-miterlimit="10" stroke-linecap="round" stroke-linejoin="round"/>
<path d="M84.4917 18.9795H81.5117" stroke="white" stroke-width="1.5" stroke-miterlimit="10" stroke-linecap="round" stroke-linejoin="round"/>
<path d="M83 17.5195V20.5095" stroke="white" stroke-width="1.5" stroke-miterlimit="10" stroke-linecap="round" stroke-linejoin="round"/>
<path d="M7.084 16.222H7.854V18H0.56V16.222H4.788V15.802C4.788 14.2993 3.98533 13.548 2.38 13.548H1.722V11.77H2.842C3.486 11.77 4.05533 11.8493 4.55 12.008C5.054 12.1573 5.46 12.3627 5.768 12.624C6.08533 12.876 6.342 13.184 6.538 13.548C6.74333 13.912 6.88333 14.29 6.958 14.682C7.042 15.0647 7.084 15.4847 7.084 15.942V16.222ZM12.1737 16.222H13.4057V18H7.80566C7.60032 18 7.49766 17.7153 7.49766 17.146C7.49766 16.53 7.61432 16.222 7.84766 16.222H9.87766V11.77H12.1737V16.222ZM9.61166 18.84C9.91966 18.84 10.181 18.9473 10.3957 19.162C10.6103 19.3767 10.7177 19.6427 10.7177 19.96C10.7177 20.268 10.6103 20.5293 10.3957 20.744C10.181 20.9587 9.91966 21.066 9.61166 21.066C9.29432 21.066 9.02832 20.9587 8.81366 20.744C8.59899 20.5293 8.49166 20.268 8.49166 19.96C8.49166 19.6427 8.59899 19.3767 8.81366 19.162C9.02832 18.9473 9.29432 18.84 9.61166 18.84ZM12.2297 18.84C12.5377 18.84 12.799 18.9473 13.0137 19.162C13.2377 19.3767 13.3497 19.6427 13.3497 19.96C13.3497 20.268 13.2377 20.5293 13.0137 20.744C12.799 20.9587 12.5377 21.066 12.2297 21.066C11.9123 21.066 11.6463 20.9587 11.4317 20.744C11.217 20.5293 11.1097 20.268 11.1097 19.96C11.1097 19.6427 11.217 19.3767 11.4317 19.162C11.6463 18.9473 11.9123 18.84 12.2297 18.84ZM19.6841 11.77C21.9801 11.77 23.1281 12.946 23.1281 15.298V18H13.3701C13.1648 18 13.0621 17.7153 13.0621 17.146C13.0621 16.53 13.1788 16.222 13.4121 16.222H14.5741V11.28H16.8701V11.77H19.6841ZM20.8321 16.222V15.214C20.8321 14.6167 20.6874 14.192 20.3981 13.94C20.1181 13.6787 19.6654 13.548 19.0401 13.548H16.8701V16.222H20.8321ZM27.4981 17.09C27.5074 17.6313 27.4654 18.098 27.3721 18.49C27.2787 18.8913 27.1107 19.274 26.8681 19.638C26.6254 20.002 26.2567 20.2913 25.7621 20.506C25.2767 20.73 24.6654 20.8793 23.9281 20.954L23.7321 19.064C24.2921 18.9987 24.6747 18.826 24.8801 18.546C25.0947 18.2753 25.2021 17.8273 25.2021 17.202V11.784H27.4981V17.09ZM35.204 10.818C34.8867 10.818 34.6207 10.7107 34.406 10.496C34.1913 10.2813 34.084 10.0153 34.084 9.698C34.084 9.39 34.1913 9.12867 34.406 8.914C34.6207 8.69933 34.8867 8.592 35.204 8.592C35.512 8.592 35.7733 8.69933 35.988 8.914C36.2027 9.12867 36.31 9.39 36.31 9.698C36.31 10.0153 36.2027 10.2813 35.988 10.496C35.7733 10.7107 35.512 10.818 35.204 10.818ZM37.822 10.818C37.5047 10.818 37.2387 10.7107 37.024 10.496C36.8093 10.2813 36.702 10.0153 36.702 9.698C36.702 9.39 36.8093 9.12867 37.024 8.914C37.2387 8.69933 37.5047 8.592 37.822 8.592C38.13 8.592 38.3913 8.69933 38.606 8.914C38.83 9.12867 38.942 9.39 38.942 9.698C38.942 10.0153 38.83 10.2813 38.606 10.496C38.3913 10.7107 38.13 10.818 37.822 10.818ZM36.548 17.44C36.3147 17.496 36.03 17.524 35.694 17.524C34.8073 17.524 34.0933 17.3 33.552 16.852C33.02 16.404 32.754 15.7553 32.754 14.906C32.754 13.9913 33.0573 13.24 33.664 12.652C34.28 12.064 35.0407 11.77 35.946 11.77H39.474V15.27C39.474 15.634 39.544 15.886 39.684 16.026C39.8333 16.1567 40.0667 16.222 40.384 16.222H40.608V18H39.348C38.6107 18 38.0647 17.846 37.71 17.538C37.3553 17.2207 37.178 16.726 37.178 16.054V13.548H36.324C35.8947 13.548 35.5727 13.6553 35.358 13.87C35.1527 14.0847 35.05 14.374 35.05 14.738C35.05 15.41 35.3953 15.746 36.086 15.746H36.338L36.548 17.44ZM45.7855 10.356C45.5708 10.5707 45.3048 10.678 44.9875 10.678C44.6701 10.678 44.4041 10.5707 44.1895 10.356C43.9748 10.1413 43.8675 9.87533 43.8675 9.558C43.8675 9.25 43.9748 8.98867 44.1895 8.774C44.4041 8.55933 44.6701 8.452 44.9875 8.452C45.3048 8.452 45.5708 8.55933 45.7855 8.774C46.0001 8.98867 46.1075 9.25 46.1075 9.558C46.1075 9.87533 46.0001 10.1413 45.7855 10.356ZM44.9735 11.63C45.9161 11.63 46.6861 11.9007 47.2835 12.442C47.8901 12.9833 48.1935 13.8327 48.1935 14.99V16.6C48.1935 17.5333 47.7128 18 46.7515 18H40.5635C40.3581 18 40.2555 17.7153 40.2555 17.146C40.2555 16.53 40.3721 16.222 40.6055 16.222H41.8235C41.5995 15.746 41.4875 15.27 41.4875 14.794C41.4875 13.8513 41.8048 13.0907 42.4395 12.512C43.0835 11.924 43.9281 11.63 44.9735 11.63ZM45.8975 16.222V15.032C45.8975 13.9493 45.5615 13.408 44.8895 13.408C44.5348 13.408 44.2595 13.5433 44.0635 13.814C43.8768 14.0753 43.7835 14.388 43.7835 14.752C43.7835 15.1813 43.9001 15.536 44.1335 15.816C44.3668 16.0867 44.7075 16.222 45.1555 16.222H45.8975ZM49.4555 18V7.99H51.7515V16.222H52.8155V18H49.4555ZM59.3385 10.496C59.1238 10.7107 58.8578 10.818 58.5405 10.818C58.2231 10.818 57.9571 10.7107 57.7425 10.496C57.5278 10.2813 57.4205 10.0153 57.4205 9.698C57.4205 9.39 57.5278 9.12867 57.7425 8.914C57.9571 8.69933 58.2231 8.592 58.5405 8.592C58.8578 8.592 59.1238 8.69933 59.3385 8.914C59.5531 9.12867 59.6605 9.39 59.6605 9.698C59.6605 10.0153 59.5531 10.2813 59.3385 10.496ZM59.0865 11.77C61.3825 11.77 62.5305 12.946 62.5305 15.298V18H52.7725C52.5671 18 52.4645 17.7153 52.4645 17.146C52.4645 16.53 52.5811 16.222 52.8145 16.222H53.9765V11.28H56.2725V11.77H59.0865ZM60.2345 16.222V15.214C60.2345 14.6167 60.0898 14.192 59.8005 13.94C59.5205 13.6787 59.0678 13.548 58.4425 13.548H56.2725V16.222H60.2345ZM64.0024 18V7.99H66.2984V18H64.0024Z" fill="white"/>
</svg>
