<svg width="31" height="33" viewBox="0 0 31 33" fill="none" xmlns="http://www.w3.org/2000/svg">
<path d="M10.8951 5.125L11.9087 2.50857C12.0796 2.06558 12.3804 1.68454 12.7715 1.41536C13.1627 1.14618 13.626 1.0014 14.1009 1H16.0337C16.5085 1.0014 16.9719 1.14618 17.363 1.41536C17.7542 1.68454 18.0549 2.06558 18.2259 2.50857L19.2394 5.125L22.6809 7.105L25.4623 6.68071C25.9254 6.61785 26.3968 6.69409 26.8165 6.89975C27.2362 7.1054 27.5853 7.43119 27.8194 7.83571L28.7623 9.48571C29.0039 9.89668 29.1152 10.3712 29.0815 10.8468C29.0479 11.3223 28.8708 11.7765 28.5737 12.1493L26.853 14.3414V18.3014L28.6209 20.4936C28.9179 20.8664 29.095 21.3205 29.1287 21.7961C29.1623 22.2716 29.051 22.7462 28.8094 23.1571L27.8666 24.8071C27.6324 25.2117 27.2834 25.5375 26.8636 25.7431C26.4439 25.9488 25.9726 26.025 25.5094 25.9621L22.728 25.5379L19.2866 27.5179L18.273 30.1343C18.1021 30.5773 17.8013 30.9583 17.4102 31.2275C17.019 31.4967 16.5557 31.6415 16.0809 31.6429H14.1009C13.626 31.6415 13.1627 31.4967 12.7715 31.2275C12.3804 30.9583 12.0796 30.5773 11.9087 30.1343L10.8951 27.5179L7.45371 25.5379L4.67228 25.9621C4.20914 26.025 3.73777 25.9488 3.31806 25.7431C2.89835 25.5375 2.54926 25.2117 2.31514 24.8071L1.37228 23.1571C1.13068 22.7462 1.01936 22.2716 1.05303 21.7961C1.0867 21.3205 1.26376 20.8664 1.56085 20.4936L3.28157 18.3014V14.3414L1.51371 12.1493C1.21662 11.7765 1.03955 11.3223 1.00589 10.8468C0.97222 10.3712 1.08353 9.89668 1.32514 9.48571L2.268 7.83571C2.50212 7.43119 2.85121 7.1054 3.27092 6.89975C3.69063 6.69409 4.162 6.61785 4.62514 6.68071L7.40657 7.105L10.8951 5.125ZM10.353 16.3214C10.353 17.2538 10.6295 18.1653 11.1475 18.9405C11.6655 19.7158 12.4018 20.32 13.2632 20.6769C14.1246 21.0337 15.0725 21.127 15.987 20.9451C16.9015 20.7632 17.7415 20.3142 18.4008 19.6549C19.0601 18.9956 19.5091 18.1556 19.691 17.2411C19.8729 16.3267 19.7795 15.3788 19.4227 14.5173C19.0659 13.6559 18.4617 12.9197 17.6864 12.4016C16.9111 11.8836 15.9997 11.6071 15.0673 11.6071C13.817 11.6071 12.6179 12.1038 11.7338 12.9879C10.8497 13.872 10.353 15.0711 10.353 16.3214V16.3214Z" stroke="url(#paint0_linear_257_924)" stroke-width="2" stroke-linecap="round" stroke-linejoin="round"/>
<defs>
<linearGradient id="paint0_linear_257_924" x1="15.0673" y1="1" x2="15.0673" y2="31.6429" gradientUnits="userSpaceOnUse">
<stop stop-color="#38EF7D"/>
<stop offset="1" stop-color="#11998E"/>
</linearGradient>
</defs>
</svg>
