<svg width="37" height="37" viewBox="0 0 37 37" fill="none" xmlns="http://www.w3.org/2000/svg">
<path d="M9.01282 18.4998V12.262C9.03134 11.0358 9.29163 9.8254 9.77876 8.70003C10.2659 7.57466 10.9703 6.55647 11.8516 5.7038C12.7329 4.85113 13.7738 4.18074 14.9147 3.73104C16.0555 3.28135 17.2739 3.06118 18.5 3.08316V3.08316C19.726 3.06118 20.9444 3.28135 22.0853 3.73104C23.2261 4.18074 24.267 4.85113 25.1483 5.7038C26.0296 6.55647 26.734 7.57466 27.2212 8.70003C27.7083 9.8254 27.9686 11.0358 27.9871 12.262V18.4998" stroke="url(#paint0_linear_257_913)" stroke-width="2" stroke-linecap="round" stroke-linejoin="round"/>
<path d="M5.45528 14.9421H7.82707C8.14159 14.9421 8.44322 15.0671 8.66562 15.2895C8.88802 15.5119 9.01296 15.8135 9.01296 16.128V23.2434C9.01296 23.5579 8.88802 23.8595 8.66562 24.0819C8.44322 24.3043 8.14159 24.4293 7.82707 24.4293H5.45528C4.82625 24.4293 4.22297 24.1794 3.77818 23.7346C3.33338 23.2898 3.0835 22.6865 3.0835 22.0575V17.3139C3.0835 16.6849 3.33338 16.0816 3.77818 15.6368C4.22297 15.192 4.82625 14.9421 5.45528 14.9421V14.9421Z" stroke="url(#paint1_linear_257_913)" stroke-width="2" stroke-linecap="round" stroke-linejoin="round"/>
<path d="M31.5448 24.4293H29.1731C28.8585 24.4293 28.5569 24.3044 28.3345 24.082C28.1121 23.8596 27.9872 23.5579 27.9872 23.2434V16.1281C27.9872 15.8136 28.1121 15.5119 28.3345 15.2895C28.5569 15.0671 28.8585 14.9422 29.1731 14.9422H31.5448C32.1739 14.9422 32.7771 15.1921 33.2219 15.6369C33.6667 16.0817 33.9166 16.6849 33.9166 17.314V22.0575C33.9166 22.6866 33.6667 23.2898 33.2219 23.7346C32.7771 24.1794 32.1739 24.4293 31.5448 24.4293V24.4293Z" stroke="url(#paint2_linear_257_913)" stroke-width="2" stroke-linecap="round" stroke-linejoin="round"/>
<path d="M23.2438 30.9516C24.5018 30.9516 25.7084 30.4518 26.598 29.5622C27.4876 28.6726 27.9873 27.4661 27.9873 26.208V20.8715" stroke="url(#paint3_linear_257_913)" stroke-width="2" stroke-linecap="round" stroke-linejoin="round"/>
<path d="M23.2437 30.9515C23.2437 31.7378 22.9314 32.4919 22.3754 33.0479C21.8194 33.6039 21.0653 33.9163 20.279 33.9163H16.7213C15.935 33.9163 15.1809 33.6039 14.6249 33.0479C14.0689 32.4919 13.7566 31.7378 13.7566 30.9515C13.7566 30.1653 14.0689 29.4112 14.6249 28.8552C15.1809 28.2992 15.935 27.9868 16.7213 27.9868H20.279C21.0653 27.9868 21.8194 28.2992 22.3754 28.8552C22.9314 29.4112 23.2437 30.1653 23.2437 30.9515Z" stroke="url(#paint4_linear_257_913)" stroke-width="2" stroke-linecap="round" stroke-linejoin="round"/>
<defs>
<linearGradient id="paint0_linear_257_913" x1="18.5" y1="3.08167" x2="18.5" y2="18.4998" gradientUnits="userSpaceOnUse">
<stop stop-color="#38EF7D"/>
<stop offset="1" stop-color="#11998E"/>
</linearGradient>
<linearGradient id="paint1_linear_257_913" x1="6.04823" y1="14.9421" x2="6.04823" y2="24.4293" gradientUnits="userSpaceOnUse">
<stop stop-color="#38EF7D"/>
<stop offset="1" stop-color="#11998E"/>
</linearGradient>
<linearGradient id="paint2_linear_257_913" x1="30.9519" y1="24.4293" x2="30.9519" y2="14.9422" gradientUnits="userSpaceOnUse">
<stop stop-color="#38EF7D"/>
<stop offset="1" stop-color="#11998E"/>
</linearGradient>
<linearGradient id="paint3_linear_257_913" x1="25.6156" y1="20.8715" x2="25.6156" y2="30.9516" gradientUnits="userSpaceOnUse">
<stop stop-color="#38EF7D"/>
<stop offset="1" stop-color="#11998E"/>
</linearGradient>
<linearGradient id="paint4_linear_257_913" x1="18.5002" y1="27.9868" x2="18.5002" y2="33.9163" gradientUnits="userSpaceOnUse">
<stop stop-color="#38EF7D"/>
<stop offset="1" stop-color="#11998E"/>
</linearGradient>
</defs>
</svg>
