<svg width="26" height="24" viewBox="0 0 26 24" fill="none" xmlns="http://www.w3.org/2000/svg">
<path d="M23.408 9.00002V15C23.408 17.5 22.8834 19.25 21.7082 20.38L15.0137 14L23.1247 6.27002C23.3136 7.06002 23.408 7.96002 23.408 9.00002Z" stroke="white" stroke-width="1.5" stroke-linecap="round" stroke-linejoin="round"/>
<path d="M23.125 6.27L6.90284 21.73C3.74446 21.04 2.42236 18.96 2.42236 15V9C2.42236 4 4.52095 2 9.76743 2H16.0632C20.2184 2 22.401 3.26 23.125 6.27Z" stroke="white" stroke-width="1.5" stroke-linecap="round" stroke-linejoin="round"/>
<path d="M21.7084 20.38C20.5227 21.5 18.6864 22 16.0632 22H9.76742C8.67615 22 7.73178 21.91 6.90283 21.73L15.0139 14L21.7084 20.38Z" stroke="white" stroke-width="1.5" stroke-linecap="round" stroke-linejoin="round"/>
<path d="M6.87141 7.97997C7.58493 5.04997 12.2018 5.04997 12.9154 7.97997C13.3246 9.69997 12.1913 11.16 11.1945 12.06C10.4705 12.72 9.32677 12.72 8.59227 12.06C7.59544 11.16 6.45169 9.69997 6.87141 7.97997Z" stroke="white" stroke-width="1.5"/>
<path d="M9.86654 8.69995H9.87597" stroke="white" stroke-width="2" stroke-linecap="round" stroke-linejoin="round"/>
</svg>
